<?xml version="1.0" standalone="no"?>
<!DOCTYPE svg PUBLIC "-//W3C//DTD SVG 20010904//EN"
 "http://www.w3.org/TR/2001/REC-SVG-20010904/DTD/svg10.dtd">
<svg version="1.0" xmlns="http://www.w3.org/2000/svg"
 width="700.000000pt" height="700.000000pt" viewBox="0 0 700.000000 700.000000"
 preserveAspectRatio="xMidYMid meet">
<metadata>
Created by potrace 1.11, written by Peter Selinger 2001-2013
</metadata>
<g transform="translate(0.000000,700.000000) scale(0.100000,-0.100000)"
fill="#000000" stroke="none">
<path d="M3377 6304 c-1 -1 -40 -5 -87 -8 -79 -5 -127 -11 -190 -22 -14 -2
-41 -7 -60 -10 -19 -3 -55 -10 -80 -16 -25 -5 -56 -12 -70 -14 -164 -29 -529
-175 -729 -292 -751 -437 -1282 -1223 -1420 -2102 -28 -174 -30 -196 -36 -362
-5 -123 -4 -153 10 -181 37 -78 143 -80 179 -3 9 19 16 81 20 166 9 190 14
238 37 380 147 891 676 1610 1464 1990 148 71 390 158 486 175 19 3 50 10 69
15 36 9 77 16 145 26 22 3 46 7 52 9 27 9 224 19 348 18 152 -1 280 -11 380
-29 11 -2 47 -9 80 -14 196 -35 426 -113 637 -216 335 -165 635 -413 901 -743
28 -35 182 -262 198 -293 150 -283 214 -434 278 -654 23 -78 66 -281 76 -359
4 -27 9 -61 11 -75 23 -142 23 -535 0 -670 -3 -14 -7 -43 -10 -65 -7 -50 -14
-92 -22 -125 -3 -14 -8 -36 -11 -50 -27 -149 -120 -404 -213 -584 -114 -224
-244 -400 -435 -592 -353 -354 -746 -558 -1247 -648 -78 -14 -200 -21 -348
-20 -214 0 -308 11 -505 59 -284 68 -593 212 -800 372 -16 13 -35 27 -40 31
-49 34 -159 134 -250 226 -226 228 -408 515 -528 831 -42 111 -93 280 -103
344 -4 21 -11 55 -19 91 -1 3 -5 28 -9 55 -44 299 -39 594 16 840 11 50 22
101 24 114 22 112 143 404 222 535 23 37 42 70 42 72 0 7 131 185 164 223 266
307 577 516 941 632 52 17 42 14 180 43 255 54 494 54 775 1 195 -37 448 -140
635 -258 510 -324 854 -861 951 -1482 18 -121 26 -407 13 -501 -5 -33 -11 -81
-14 -109 -10 -74 -50 -234 -81 -323 -84 -236 -212 -448 -380 -630 -257 -277
-578 -451 -954 -518 -190 -34 -494 -19 -680 33 -147 41 -366 136 -437 189 -17
13 -35 24 -40 24 -18 0 -184 136 -271 222 -239 235 -406 536 -485 873 -35 152
-38 175 -42 380 -5 247 22 407 103 606 164 408 480 708 886 840 124 41 259 61
406 61 779 0 1414 -682 1395 -1497 -9 -351 -167 -671 -440 -890 -142 -115
-324 -195 -500 -222 -62 -9 -253 -9 -320 1 -85 12 -216 55 -310 102 -322 158
-560 494 -612 863 -9 60 -10 276 -2 321 38 204 149 396 304 524 73 59 217 130
310 152 91 21 250 21 339 0 368 -88 627 -423 628 -812 1 -208 -112 -391 -297
-480 -73 -35 -88 -38 -175 -41 -150 -4 -257 38 -364 143 -125 123 -190 350
-132 462 49 95 160 134 254 90 50 -24 99 -84 107 -132 3 -17 7 -43 9 -58 10
-60 49 -100 99 -100 69 0 107 47 107 131 0 146 -100 299 -240 365 -59 28 -74
31 -165 31 -92 0 -105 -3 -167 -33 -199 -97 -279 -324 -208 -592 51 -190 189
-364 360 -454 276 -146 613 -86 825 145 133 147 197 315 197 519 0 485 -324
912 -777 1024 -107 26 -266 36 -350 21 -151 -27 -242 -58 -350 -118 -272 -154
-472 -443 -522 -755 -10 -61 -10 -299 0 -377 34 -267 183 -574 369 -765 275
-280 611 -418 983 -403 513 22 978 374 1164 881 28 77 59 188 66 240 2 15 7
50 11 77 11 74 7 330 -6 410 -6 39 -13 81 -15 95 -18 132 -129 429 -208 555
-272 437 -638 694 -1112 782 -139 25 -360 25 -515 -2 -19 -3 -51 -8 -70 -11
-87 -15 -243 -71 -365 -132 -471 -234 -806 -703 -895 -1250 -25 -153 -28 -401
-6 -527 3 -16 8 -55 12 -85 8 -72 57 -261 93 -364 193 -543 607 -975 1131
-1183 83 -33 271 -86 340 -97 19 -3 46 -8 60 -10 85 -16 298 -22 410 -12 230
20 461 86 672 192 85 43 268 156 298 185 8 8 37 32 65 54 252 202 486 540 600
865 40 116 82 274 91 342 3 24 10 70 16 103 13 78 18 376 7 485 -48 486 -217
913 -504 1270 -90 113 -242 268 -335 342 -41 33 -84 66 -94 75 -36 29 -181
120 -256 161 -155 84 -378 168 -523 195 -15 3 -35 8 -45 11 -29 9 -73 16 -182
30 -103 14 -445 15 -517 2 -18 -3 -45 -8 -60 -10 -344 -49 -698 -199 -983
-416 -134 -103 -292 -263 -434 -440 -6 -9 -41 -60 -78 -115 -196 -298 -314
-609 -373 -985 -28 -180 -26 -533 5 -735 18 -121 21 -137 46 -249 83 -362 249
-713 483 -1021 142 -187 389 -419 595 -559 63 -43 252 -156 261 -156 3 0 41
-18 85 -39 107 -53 197 -85 365 -132 156 -44 147 -42 300 -66 81 -13 170 -18
340 -18 266 0 324 5 530 50 738 161 1358 655 1710 1364 74 149 160 371 181
466 1 6 7 30 14 55 7 25 14 52 15 60 2 8 8 35 14 60 20 90 38 214 48 325 9
116 9 403 -1 525 -31 399 -174 867 -367 1206 -34 60 -67 118 -73 129 -34 62
-165 241 -252 345 -348 414 -787 714 -1284 877 -73 24 -235 67 -295 78 -83 15
-218 35 -285 41 -70 7 -378 13 -383 8z"/>
</g>
</svg>
